<?xml version="1.0" standalone="no"?><!DOCTYPE svg PUBLIC "-//W3C//DTD SVG 1.1//EN" "http://www.w3.org/Graphics/SVG/1.1/DTD/svg11.dtd"><svg t="1536309093663" class="icon" style="" viewBox="0 0 1110 1024" version="1.1" xmlns="http://www.w3.org/2000/svg" p-id="3297" xmlns:xlink="http://www.w3.org/1999/xlink" width="325.1953125" height="300"><defs><style type="text/css"></style></defs><path d="M144.049581 736.563896a143.481245 143.481245 0 0 1 137.087462 101.21123h73.789001v-39.286249l-10.372138 8.809213-25.646177 21.620461-21.715185-25.693538-87.002821-103.200407-21.620462-25.669858 25.7409-21.644143 399.966699-336.976088 25.646178-21.620461 21.667823 25.693538 19.962814 29.55349L1009.175894 51.884372l-4.617733-7.104205 44.993294-43.809259 60.409416 62.753804-46.177327 41.441192-6.867398-5.636003-331.766338 301.644513 23.349151 21.857268 21.620462 25.669858-25.693539 21.644142-45.656352 38.575829 10.44318-8.454003 80.34855 337.402341h35.521021a143.386522 143.386522 0 1 1 0 84.350585H281.160723a143.410203 143.410203 0 1 1-137.087461-185.561815z m487.822025-347.798159l-348.603302 293.640442 43.690856 51.83701 348.603302-293.640442-43.690856-51.860691zM226.576754 560.142824l35.781509 35.781509 178.599695-152.124694-35.781509-35.781508z" fill="#4680ff" p-id="3298"></path></svg>